<svg width="32" height="32" viewBox="0 0 32 32" fill="none" xmlns="http://www.w3.org/2000/svg">
<g clip-path="url(#clip0_796_298)">
<path fill-rule="evenodd" clip-rule="evenodd" d="M16 0.394531C7.164 0.394531 0 7.5572 0 16.3945C0 23.4639 4.584 29.4612 10.9413 31.5772C11.7413 31.7252 12.0347 31.2305 12.0347 30.8079C12.0347 30.4265 12.02 29.1665 12.0133 27.8292C7.56267 28.7972 6.62267 25.9412 6.62267 25.9412C5.89467 24.0919 4.84667 23.5999 4.84667 23.5999C3.39467 22.6065 4.956 22.6279 4.956 22.6279C6.56267 22.7412 7.408 24.2772 7.408 24.2772C8.83467 26.7225 11.1507 26.0159 12.064 25.6065C12.208 24.5719 12.6227 23.8665 13.08 23.4665C9.52667 23.0625 5.79067 21.6905 5.79067 15.5599C5.79067 13.8132 6.416 12.3852 7.44 11.2652C7.27333 10.8612 6.72533 9.23453 7.59467 7.03053C7.59467 7.03053 8.93867 6.6012 11.996 8.67053C13.272 8.31586 14.64 8.13853 16 8.13186C17.36 8.13853 18.7293 8.31586 20.008 8.67053C23.0613 6.59986 24.404 7.03053 24.404 7.03053C25.2747 9.23453 24.7267 10.8612 24.5613 11.2652C25.5867 12.3852 26.208 13.8132 26.208 15.5599C26.208 21.7052 22.4653 23.0585 18.9027 23.4545C19.476 23.9505 19.988 24.9252 19.988 26.4172C19.988 28.5585 19.9693 30.2812 19.9693 30.8079C19.9693 31.2332 20.2573 31.7332 21.068 31.5759C27.4227 29.4572 32.0013 23.4625 32.0013 16.3959C32 7.55853 24.836 0.394531 16 0.394531Z" fill="#323232"/>
<path d="M6.06004 23.368C6.02538 23.448 5.90004 23.472 5.78538 23.4173C5.66938 23.3653 5.60404 23.256 5.64138 23.1773C5.67604 23.096 5.80138 23.0733 5.91738 23.128C6.03338 23.1787 6.10004 23.288 6.06004 23.368Z" fill="#323232"/>
<path d="M6.70779 24.0904C6.63179 24.161 6.48246 24.1277 6.38113 24.017C6.27579 23.905 6.25713 23.7557 6.33446 23.685C6.41313 23.6144 6.55713 23.6477 6.66246 23.7597C6.76779 23.8704 6.78779 24.0184 6.70779 24.0904Z" fill="#323232"/>
<path d="M7.33921 25.0118C7.24054 25.0798 7.08054 25.0158 6.98187 24.8745C6.88321 24.7318 6.88321 24.5611 6.98454 24.4931C7.08321 24.4251 7.24187 24.4865 7.34187 24.6278C7.43921 24.7718 7.43921 24.9425 7.33921 25.0118Z" fill="#323232"/>
<path d="M8.2026 25.9023C8.1146 25.9996 7.92794 25.973 7.79194 25.841C7.65194 25.7116 7.61327 25.529 7.70127 25.4316C7.7906 25.3343 7.9786 25.3623 8.11594 25.493C8.2546 25.6223 8.29594 25.8063 8.2026 25.9023Z" fill="#323232"/>
<path d="M9.3961 26.4185C9.35743 26.5439 9.17743 26.6012 8.9961 26.5479C8.81477 26.4932 8.6961 26.3465 8.73343 26.2199C8.77077 26.0932 8.9521 26.0345 9.13477 26.0919C9.31477 26.1452 9.43343 26.2919 9.3961 26.4185Z" fill="#323232"/>
<path d="M10.7056 26.5147C10.7096 26.6467 10.5562 26.756 10.3656 26.7587C10.1749 26.7627 10.0189 26.656 10.0176 26.5267C10.0176 26.3934 10.1682 26.2854 10.3589 26.2814C10.5496 26.2774 10.7056 26.384 10.7056 26.5147Z" fill="#323232"/>
<path d="M11.9247 26.3078C11.9473 26.4358 11.8153 26.5691 11.626 26.6038C11.4407 26.6384 11.2687 26.5584 11.2447 26.4304C11.222 26.2984 11.3567 26.1664 11.542 26.1318C11.73 26.0984 11.9007 26.1758 11.9247 26.3078Z" fill="#323232"/>
</g>
<defs>
<clipPath id="clip0_796_298">
<rect width="32" height="32" fill="white"/>
</clipPath>
</defs>
</svg>
