<svg width="28" height="28" viewBox="0 0 28 28" fill="none" xmlns="http://www.w3.org/2000/svg">
<path d="M23.0547 23.4308H19.0453V17.1522C19.0453 15.6548 19.0187 13.7282 16.96 13.7282C14.872 13.7282 14.552 15.3588 14.552 17.0442V23.4308H10.544V10.5188H14.3933V12.2828H14.4467C15.232 10.9415 16.6907 10.1402 18.244 10.1975C22.308 10.1975 23.056 12.8708 23.056 16.3468L23.0547 23.4308ZM6.02 8.75349C4.73467 8.75349 3.69333 7.71216 3.69333 6.42683C3.69333 5.14149 4.73467 4.10016 6.02 4.10016C7.30533 4.10016 8.34667 5.14149 8.34667 6.42683C8.34667 7.71216 7.30533 8.75349 6.02 8.75349ZM8.024 23.4308H4.01067V10.5188H8.024V23.4308ZM25.0533 0.377492H1.996C0.906667 0.365492 0.0133333 1.23883 0 2.32816V25.4802C0.0133333 26.5708 0.906667 27.4442 1.996 27.4322H25.0533C26.1453 27.4455 27.0427 26.5722 27.0573 25.4802V2.32683C27.0413 1.23483 26.144 0.361492 25.0533 0.376159" fill="#323232"/>
</svg>
